<?xml version="1.0" encoding="UTF-8"?>
<svg width="84px" height="27px" viewBox="0 0 84 27" version="1.1" xmlns="http://www.w3.org/2000/svg" xmlns:xlink="http://www.w3.org/1999/xlink">
    <!-- Generator: Sketch 50.2 (55047) - http://www.bohemiancoding.com/sketch -->
    <title>Group 3</title>
    <desc>Created with Sketch.</desc>
    <defs></defs>
    <g id="Page-1" stroke="none" stroke-width="1" fill="none" fill-rule="evenodd">
        <g id="Group-3" transform="translate(0.000000, -5.000000)">
            <rect id="Rectangle-10" x="0" y="4" width="135" height="27"></rect>
            <path d="M10.125,10.69 C10.125,11.7600054 9.90750218,12.692496 9.4725,13.4875 C9.03749782,14.282504 8.40250418,14.8999978 7.5675,15.34 C6.73249582,15.7800022 5.7350058,16 4.575,16 L1.035,16 L1.035,5.41 L4.575,5.41 C5.7350058,5.41 6.73249582,5.62749782 7.5675,6.0625 C8.40250418,6.49750218 9.03749782,7.10999605 9.4725,7.9 C9.90750218,8.69000395 10.125,9.61999465 10.125,10.69 Z M4.44,14.455 C5.71000635,14.455 6.6849966,14.1250033 7.365,13.465 C8.0450034,12.8049967 8.385,11.8800059 8.385,10.69 C8.385,9.49999405 8.0450034,8.5750033 7.365,7.915 C6.6849966,7.2549967 5.71000635,6.925 4.44,6.925 L2.745,6.925 L2.745,14.455 L4.44,14.455 Z M14.06,6.79 L14.06,10 L17.96,10 L17.96,11.32 L14.06,11.32 L14.06,14.605 L18.41,14.605 L18.41,16 L12.35,16 L12.35,5.41 L18.41,5.41 L18.41,6.79 L14.06,6.79 Z M27.535,13.18 C27.535,13.7000026 27.4100013,14.1824978 27.16,14.6275 C26.9099987,15.0725022 26.5300025,15.4299986 26.02,15.7 C25.5099975,15.9700014 24.8850037,16.105 24.145,16.105 C23.4249964,16.105 22.7800028,15.9775013 22.21,15.7225 C21.6399971,15.4674987 21.1850017,15.1100023 20.845,14.65 C20.5049983,14.1899977 20.3100003,13.660003 20.26,13.06 L22.09,13.06 C22.1400002,13.5200023 22.3374983,13.9149983 22.6825,14.245 C23.0275017,14.5750017 23.4899971,14.74 24.07,14.74 C24.5900026,14.74 24.9924986,14.6000014 25.2775,14.32 C25.5625014,14.0399986 25.705,13.6800022 25.705,13.24 C25.705,12.8599981 25.600001,12.5475012 25.39,12.3025 C25.179999,12.0574988 24.9200016,11.8650007 24.61,11.725 C24.2999984,11.5849993 23.8750027,11.4250009 23.335,11.245 C22.6749967,11.034999 22.1375021,10.825001 21.7225,10.615 C21.3074979,10.404999 20.9550014,10.100002 20.665,9.7 C20.3749986,9.299998 20.23,8.77500325 20.23,8.125 C20.23,7.55499715 20.3699986,7.05500215 20.65,6.625 C20.9300014,6.19499785 21.3299974,5.86250118 21.85,5.6275 C22.3700026,5.39249883 22.9699966,5.275 23.65,5.275 C24.7300054,5.275 25.5874968,5.5349974 26.2225,6.055 C26.8575032,6.5750026 27.2199995,7.2549958 27.31,8.095 L25.465,8.095 C25.3949996,7.694998 25.2075015,7.35250143 24.9025,7.0675 C24.5974985,6.78249857 24.1800026,6.64 23.65,6.64 C23.1699976,6.64 22.7850014,6.76249878 22.495,7.0075 C22.2049985,7.25250122 22.06,7.6049977 22.06,8.065 C22.06,8.4250018 22.159999,8.72249883 22.36,8.9575 C22.560001,9.19250118 22.8124985,9.37749933 23.1175,9.5125 C23.4225015,9.64750067 23.8399973,9.8049991 24.37,9.985 C25.0400033,10.1950011 25.5874979,10.4074989 26.0125,10.6225 C26.4375021,10.8375011 26.7974985,11.1499979 27.0925,11.56 C27.3875015,11.9700021 27.535,12.5099967 27.535,13.18 Z M31.455,5.41 L31.455,16 L29.745,16 L29.745,5.41 L31.455,5.41 Z M38.87,5.32 C40.1300063,5.32 41.1799958,5.6299969 42.02,6.25 C42.8600042,6.8700031 43.4149987,7.71499465 43.685,8.785 L41.885,8.785 C41.6549988,8.21499715 41.2775026,7.7600017 40.7525,7.42 C40.2274974,7.0799983 39.6050036,6.91 38.885,6.91 C38.2249967,6.91 37.6325026,7.06499845 37.1075,7.375 C36.5824974,7.68500155 36.1725015,8.12499715 35.8775,8.695 C35.5824985,9.26500285 35.435,9.93499615 35.435,10.705 C35.435,11.515004 35.5849985,12.2099971 35.885,12.79 C36.1850015,13.3700029 36.6074973,13.8124985 37.1525,14.1175 C37.6975027,14.4225015 38.3299964,14.575 39.05,14.575 C39.9300044,14.575 40.6849969,14.3025027 41.315,13.7575 C41.9450032,13.2124973 42.3249993,12.4650047 42.455,11.515 L38.57,11.515 L38.57,10.255 L43.895,10.255 L43.895,11.89 C43.7749994,12.6700039 43.4975022,13.3774968 43.0625,14.0125 C42.6274978,14.6475032 42.0525036,15.1549981 41.3375,15.535 C40.6224964,15.9150019 39.8050046,16.105 38.885,16.105 C37.8549949,16.105 36.945004,15.8750023 36.155,15.415 C35.3649961,14.9549977 34.7550021,14.3175041 34.325,13.5025 C33.8949978,12.6874959 33.68,11.7550052 33.68,10.705 C33.68,9.65499475 33.8949978,8.72250407 34.325,7.9075 C34.7550021,7.09249593 35.3624961,6.45750227 36.1475,6.0025 C36.9325039,5.54749772 37.8399949,5.32 38.87,5.32 Z M54.685,16 L52.975,16 L47.83,8.185 L47.83,16 L46.12,16 L46.12,5.425 L47.83,5.425 L52.975,13.27 L52.975,5.425 L54.685,5.425 L54.685,16 Z M58.965,6.79 L58.965,10 L62.865,10 L62.865,11.32 L58.965,11.32 L58.965,14.605 L63.315,14.605 L63.315,16 L57.255,16 L57.255,5.41 L63.315,5.41 L63.315,6.79 L58.965,6.79 Z M71.045,16 L68.405,11.77 L67.19,11.77 L67.19,16 L65.48,16 L65.48,5.41 L69.215,5.41 C70.425006,5.41 71.3424969,5.70499705 71.9675,6.295 C72.5925031,6.88500295 72.905,7.66499515 72.905,8.635 C72.905,9.46500415 72.6725023,10.1449973 72.2075,10.675 C71.7424977,11.2050026 71.0700044,11.5449993 70.19,11.695 L72.965,16 L71.045,16 Z M67.19,10.555 L69.08,10.555 C70.4600069,10.555 71.15,9.9450061 71.15,8.725 C71.15,8.1449971 70.9825017,7.69250162 70.6475,7.3675 C70.3124983,7.04249838 69.7900035,6.88 69.08,6.88 L67.19,6.88 L67.19,10.555 Z" id="Designer" fill="#2A2A2A"></path>
            <path d="M9.125,25.69 C9.125,26.7600054 8.90750217,27.692496 8.4725,28.4875 C8.03749782,29.282504 7.40250417,29.8999978 6.5675,30.34 C5.73249582,30.7800022 4.7350058,31 3.575,31 L0.035,31 L0.035,20.41 L3.575,20.41 C4.7350058,20.41 5.73249582,20.6274978 6.5675,21.0625 C7.40250417,21.4975022 8.03749782,22.109996 8.4725,22.9 C8.90750217,23.690004 9.125,24.6199947 9.125,25.69 Z M3.44,29.455 C4.71000635,29.455 5.6849966,29.1250033 6.365,28.465 C7.0450034,27.8049967 7.385,26.8800059 7.385,25.69 C7.385,24.4999941 7.0450034,23.5750033 6.365,22.915 C5.6849966,22.2549967 4.71000635,21.925 3.44,21.925 L1.745,21.925 L1.745,29.455 L3.44,29.455 Z M13.06,21.79 L13.06,25 L16.96,25 L16.96,26.32 L13.06,26.32 L13.06,29.605 L17.41,29.605 L17.41,31 L11.35,31 L11.35,20.41 L17.41,20.41 L17.41,21.79 L13.06,21.79 Z M20.64,20.41 L23.685,29.17 L26.745,20.41 L28.605,20.41 L24.78,31 L22.59,31 L18.78,20.41 L20.64,20.41 Z M32.09,21.79 L32.09,25 L35.99,25 L35.99,26.32 L32.09,26.32 L32.09,29.605 L36.44,29.605 L36.44,31 L30.38,31 L30.38,20.41 L36.44,20.41 L36.44,21.79 L32.09,21.79 Z M40.315,29.665 L43.975,29.665 L43.975,31 L38.605,31 L38.605,20.41 L40.315,20.41 L40.315,29.665 Z M50.715,20.275 C51.6950049,20.275 52.582496,20.5049977 53.3775,20.965 C54.172504,21.4250023 54.7974977,22.0674959 55.2525,22.8925 C55.7075023,23.7175041 55.935,24.6499948 55.935,25.69 C55.935,26.7300052 55.7075023,27.6624959 55.2525,28.4875 C54.7974977,29.3125041 54.172504,29.9574977 53.3775,30.4225 C52.582496,30.8875023 51.6950049,31.12 50.715,31.12 C49.724995,31.12 48.832504,30.8875023 48.0375,30.4225 C47.242496,29.9574977 46.6150023,29.3125041 46.155,28.4875 C45.6949977,27.6624959 45.465,26.7300052 45.465,25.69 C45.465,24.6499948 45.6949977,23.7175041 46.155,22.8925 C46.6150023,22.0674959 47.242496,21.4250023 48.0375,20.965 C48.832504,20.5049977 49.724995,20.275 50.715,20.275 Z M50.715,21.865 C50.0349966,21.865 49.4300026,22.0199984 48.9,22.33 C48.3699973,22.6400016 47.9575015,23.0849971 47.6625,23.665 C47.3674985,24.2450029 47.22,24.9199962 47.22,25.69 C47.22,26.4600038 47.3674985,27.1349971 47.6625,27.715 C47.9575015,28.2950029 48.3699973,28.7399985 48.9,29.05 C49.4300026,29.3600015 50.0349966,29.515 50.715,29.515 C51.3850033,29.515 51.9824974,29.3600015 52.5075,29.05 C53.0325026,28.7399985 53.4424985,28.2950029 53.7375,27.715 C54.0325015,27.1349971 54.18,26.4600038 54.18,25.69 C54.18,24.9199962 54.0325015,24.2450029 53.7375,23.665 C53.4424985,23.0849971 53.0325026,22.6400016 52.5075,22.33 C51.9824974,22.0199984 51.3850033,21.865 50.715,21.865 Z M59.87,26.89 L59.87,31 L58.16,31 L58.16,20.41 L61.76,20.41 C62.9800061,20.41 63.8974969,20.6999971 64.5125,21.28 C65.1275031,21.8600029 65.435,22.6549949 65.435,23.665 C65.435,24.665005 65.1200031,25.4524971 64.49,26.0275 C63.8599968,26.6025029 62.9500059,26.89 61.76,26.89 L59.87,26.89 Z M61.58,25.495 C62.990007,25.495 63.695,24.8850061 63.695,23.665 C63.695,23.064997 63.5275017,22.6075016 63.1925,22.2925 C62.8574983,21.9774984 62.3200037,21.82 61.58,21.82 L59.87,21.82 L59.87,25.495 L61.58,25.495 Z M69.145,21.79 L69.145,25 L73.045,25 L73.045,26.32 L69.145,26.32 L69.145,29.605 L73.495,29.605 L73.495,31 L67.435,31 L67.435,20.41 L73.495,20.41 L73.495,21.79 L69.145,21.79 Z M81.225,31 L78.585,26.77 L77.37,26.77 L77.37,31 L75.66,31 L75.66,20.41 L79.395,20.41 C80.605006,20.41 81.5224969,20.704997 82.1475,21.295 C82.7725031,21.885003 83.085,22.6649952 83.085,23.635 C83.085,24.4650041 82.8525023,25.1449973 82.3875,25.675 C81.9224977,26.2050026 81.2500044,26.5449993 80.37,26.695 L83.145,31 L81.225,31 Z M77.37,25.555 L79.26,25.555 C80.6400069,25.555 81.33,24.9450061 81.33,23.725 C81.33,23.1449971 81.1625017,22.6925016 80.8275,22.3675 C80.4924983,22.0424984 79.9700035,21.88 79.26,21.88 L77.37,21.88 L77.37,25.555 Z" id="Developer" fill="#2A2A2A"></path>
        </g>
    </g>
</svg>