<?xml version="1.0" encoding="UTF-8"?>
<svg width="43px" height="43px" viewBox="0 0 43 43" version="1.1" xmlns="http://www.w3.org/2000/svg" xmlns:xlink="http://www.w3.org/1999/xlink">
    <!-- Generator: Sketch 51.2 (57519) - http://www.bohemiancoding.com/sketch -->
    <title>img</title>
    <desc>Created with Sketch.</desc>
    <defs></defs>
    <g id="Page-1" stroke="none" stroke-width="1" fill="none" fill-rule="evenodd">
        <g id="Browser-Not-Supported" transform="translate(-383.000000, -277.000000)" fill="#F5A623">
            <g id="Browser-Icons---Color" transform="translate(224.000000, 276.000000)">
                <g id="firefox" transform="translate(159.070811, 1.859521)">
                    <g id="img">
                        <path d="M21.0931699,41.4708952 C9.44373386,41.4708952 0,32.1873191 0,20.7354476 C0,9.2835761 9.44373386,0 21.0931699,0 C32.742606,0 42.1863399,9.2835761 42.1863399,20.7354476 C42.1863399,32.1873191 32.742606,41.4708952 21.0931699,41.4708952 Z M21.6901682,37.7600957 C32.5886838,37.7600957 38.6108343,31.410921 38.6108343,20.7354476 C38.6108343,14.1826686 36.2001585,9.01829072 31.3666601,5.52261134 C31.0298164,5.27899947 31.7380757,4.41969805 31.3666599,4.19890243 C28.3849548,2.42636802 24.8856737,1.40579306 21.1430444,1.40579306 C13.1043736,1.40579306 6.18834956,6.11404578 3.11224729,12.8688862 C2.01789036,15.2719944 2.73372957,17.9341306 2.73372957,20.7354476 C2.73372957,31.410921 10.7916526,37.7600957 21.6901682,37.7600957 Z" id="Oval-1"></path>
                        <path d="M3.82357367,4.3594686 L6.65985251,8.38293345 L11.5244045,8.81709561 L16.2406386,6.15926811 L14.755739,9.25125777 C14.755739,9.25125777 15.4780575,10.2956494 15.4780575,11.2796359 C15.4780575,11.2796359 20.1745487,11.2796359 20.1745487,11.2796359 C20.1745487,11.2796359 21.1179233,11.8867765 20.3050999,12.8282048 C19.4922764,13.7696332 16.1525426,16.3196923 16.1525426,16.3196923 L16.1298304,19.0231669 L13.0495668,19.0883771 C13.0495668,19.0883771 12.956309,22.7627961 15.4302241,23.4406382 C17.9041392,24.1184803 21.155777,22.4617999 21.155777,22.4617999 C21.155777,22.4617999 23.6400159,22.0852972 24.5836069,23.1822002 C25.5271978,24.2791032 25.4215514,24.6250601 24.2160813,25.0194097 C23.0106112,25.4137594 20.2930555,27.6950842 18.2114429,27.6950842 C16.1298304,27.6950842 15.4756486,27.6072221 15.4756486,27.6072221 C15.4756486,27.6072221 16.3239169,28.8901456 18.0528013,29.4372242 C19.7816856,29.9843029 27.7874113,31.9395771 31.7785739,24.9569453 C32.5924297,23.1822002 32.5697174,19.8190737 32.5697174,19.8190737 L34.2758895,20.9533867 C34.2758895,20.9533867 35.3905106,16.61657 34.2758895,13.948103 C34.2758895,13.948103 35.6272687,13.7672307 35.6272687,13.7672307 C35.6272687,13.7672307 33.2689796,8.80062147 27.8383418,7.47994479 C27.8383418,7.47994479 30.9815802,6.65692434 30.9815802,6.65692434 C30.9815802,6.65692434 28.8603933,4.67899823 25.4652553,4.04645999 L31.4347929,4.19953219 L37.6909867,9.98504331 L40.3534824,18.383078 L39.4577249,26.8669156 L35.3354506,33.6563194 L30.0328274,38.0284869 L23.290729,39.9010471 L12.6452199,38.4653947 L3.00421188,29.8061763 L1.0815851,16.7064914 L2.60915629,11.048998 L3.82357367,4.3594686 Z" id="Path-17"></path>
                    </g>
                </g>
            </g>
        </g>
    </g>
</svg>