<?xml version="1.0" encoding="UTF-8"?>
<svg width="43px" height="43px" viewBox="0 0 43 43" version="1.1" xmlns="http://www.w3.org/2000/svg" xmlns:xlink="http://www.w3.org/1999/xlink">
    <!-- Generator: Sketch 51.2 (57519) - http://www.bohemiancoding.com/sketch -->
    <title>img</title>
    <desc>Created with Sketch.</desc>
    <defs>
        <path d="M18.0935073,41.2980057 C7.88534838,39.979161 0,31.2757197 0,20.7354476 C0,16.5738044 1.22926896,12.69851 3.345424,9.45103782 L12.1228849,24.6540461 C13.6185445,27.9396056 16.9370531,30.2245507 20.7906603,30.2245507 C22.3303089,30.2245507 23.7845408,29.8598101 25.0712277,29.2122395 L18.0935073,41.2980057 Z M19.6351374,41.4394102 L28.0406785,26.8805858 C29.452872,25.2249418 30.3050303,23.0794465 30.3050303,20.7354476 C30.3050303,17.3181925 28.4938559,14.3228365 25.7766688,12.6521375 L39.9423353,12.6521375 C40.9976526,15.1361324 41.5813207,17.8678095 41.5813207,20.7354476 C41.5813207,32.1873191 32.273025,41.4708952 20.7906603,41.4708952 C20.4029153,41.4708952 20.0176494,41.4603088 19.6351374,41.4394102 Z M4.23845803,8.18623351 C8.03623185,3.21125967 14.0374326,0 20.7906603,0 C28.8444148,0 35.8286037,4.56719338 39.2814537,11.2463444 L20.4382763,11.2463444 L20.4382763,11.2527322 C15.4628168,11.4334027 11.4621873,15.4243778 11.2825853,20.3870184 L4.23845892,8.18623355 Z M20.7906603,28.1158611 C16.703717,28.1158611 13.3905948,24.8115374 13.3905948,20.7354476 C13.3905948,16.6593577 16.703717,13.355034 20.7906603,13.355034 C24.8776037,13.355034 28.1907259,16.6593577 28.1907259,20.7354476 C28.1907259,24.8115374 24.8776037,28.1158611 20.7906603,28.1158611 Z" id="path-1"></path>
    </defs>
    <g id="Page-1" stroke="none" stroke-width="1" fill="none" fill-rule="evenodd">
        <g id="Browser-Not-Supported" transform="translate(-305.000000, -277.000000)">
            <g id="Browser-Icons---Color" transform="translate(224.000000, 276.000000)">
                <g id="chrome" transform="translate(81.546315, 1.859521)">
                    <g id="img">
                        <mask id="mask-2" fill="white">
                            <use xlink:href="#path-1"></use>
                        </mask>
                        <use id="Oval-1" fill="#56AFEF" xlink:href="#path-1"></use>
                        <polygon id="Path-14" fill="#FA6758" mask="url(#mask-2)" points="3.1322264 6.25330798 11.4573001 22.2613646 12.5495531 17.5978108 15.6046955 13.72227 20.8897684 12.3267733 26.2601842 12.0206289 45.9806156 11.7494921 25.5203153 -2.52191586 11.4277054 0.0377532315"></polygon>
                        <polygon id="Path-15" fill="#F5D923" mask="url(#mask-2)" points="23.9118747 11.9615966 27.1032907 15.2296536 29.1563408 18.4977106 29.1563408 21.2434001 27.621543 25.4655843 18.6371256 42.3474565 23.3984401 42.6082971 33.7366455 39.1295084 41.0252146 30.1236466 43.4664378 21.0731674 42.4189211 13.9796784 41.1057398 12.1023132"></polygon>
                        <polygon id="Path-16" fill="#6CE84E" mask="url(#mask-2)" points="3.23271092 8.25079714 6.81161167 14.2549338 12.0058355 22.1364357 14.6232508 26.4883536 16.8930998 28.1899947 19.8222924 29.0185066 23.7990017 28.9278988 26.0791744 28.0094657 17.9605757 42.808046 3.69108552 37.2809729 -2.24300722 24.3597578 -1.58848133 14.6516859"></polygon>
                    </g>
                </g>
            </g>
        </g>
    </g>
</svg>