<?xml version="1.0" encoding="UTF-8"?>
<svg width="44px" height="42px" viewBox="0 0 44 42" version="1.1" xmlns="http://www.w3.org/2000/svg" xmlns:xlink="http://www.w3.org/1999/xlink">
    <!-- Generator: Sketch 51.2 (57519) - http://www.bohemiancoding.com/sketch -->
    <title>img</title>
    <desc>Created with Sketch.</desc>
    <defs></defs>
    <g id="Page-1" stroke="none" stroke-width="1" fill="none" fill-rule="evenodd">
        <g id="Browser-Not-Supported" transform="translate(-224.000000, -276.000000)" fill="#68D1FF">
            <g id="Browser-Icons---Color" transform="translate(224.000000, 276.000000)">
                <g id="ie">
                    <g id="img">
                        <path d="M4.98079132,27.2204825 L11.6232464,15.0596799 C11.6232464,15.0596799 7.57652067,18.4194463 4.43203704,22.0511244 C4.71964683,11.6271231 13.2496136,3.26531444 23.7301564,3.26531444 C34.3923521,3.26531444 43.0357695,11.9194955 43.0357695,22.594969 C43.0357695,23.3709473 42.9901017,24.136246 42.9013103,24.8883178 L31.2560734,24.8883178 L15.5498118,24.8883178 C15.5498118,29.9546442 19.0657782,34.0617132 23.4029426,34.0617132 C26.3097097,34.0617132 28.847621,32.2169496 30.2054643,29.4750155 L41.7770604,29.4750155 C39.0075679,36.7535467 31.9719959,41.9246235 23.7301564,41.9246235 C14.6602588,41.9246235 7.05119264,35.662272 4.98079068,27.2204799 Z M30.9308655,18.9911351 C29.9654362,15.201882 26.960434,12.4387098 23.4029426,12.4387098 C19.8454512,12.4387098 16.840449,15.201882 15.8750197,18.9911351 L30.9308655,18.9911351 Z" id="Oval-1"></path>
                        <path d="M38.6400426,14.9038012 C40.8416454,10.2030199 41.7133152,6.1804381 39.96932,4.43431044 C35.7751834,0.235045664 25.476269,6.19782612 15.8741914,15.7999036 C6.27211393,25.4019812 0.0940254498,35.4308007 4.12318124,39.4599546 C5.57694582,40.9137185 8.88262763,40.7551322 12.6891275,39.4811331 C7.97733205,41.5292142 4.06805656,41.7886022 2.05492271,39.7754683 C-2.02254516,35.6980004 3.22273293,23.8418407 13.7705792,13.2939944 C24.3184255,2.74614812 36.1745852,-2.49912996 40.2520531,1.57833791 C42.6377163,3.96400109 41.8319812,9.01249603 38.6400426,14.9038012 Z" id="Path-2"></path>
                    </g>
                </g>
            </g>
        </g>
    </g>
</svg>