<?xml version="1.0" encoding="UTF-8"?>
<svg width="76px" height="76px" viewBox="0 0 76 76" version="1.1" xmlns="http://www.w3.org/2000/svg" xmlns:xlink="http://www.w3.org/1999/xlink">
    <!-- Generator: Sketch 50.2 (55047) - http://www.bohemiancoding.com/sketch -->
    <title>Shape</title>
    <desc>Created with Sketch.</desc>
    <defs></defs>
    <g id="Page-1" stroke="none" stroke-width="1" fill="none" fill-rule="evenodd">
        <g id="Hack" transform="translate(-605.000000, -233.000000)" fill="#FFC80A">
            <g id="Title" transform="translate(342.000000, 232.000000)">
                <g id="Envelope" transform="translate(263.000000, 0.000000)">
                    <path d="M74.382,76.998 L1.617,76.998 C0.724,76.998 0,76.274 0,75.381 L0,29.87 L0.001,29.87 L0.001,29.87 C0.001,29.36 0.241,28.88 0.648,28.575 L37.031,1.321 C37.605,0.89 38.395,0.89 38.969,1.321 L75.353,28.576 C75.76,28.881 76,29.361 75.999,29.87 L75.999,75.381 C75.999,76.274 75.276,76.998 74.382,76.998 L74.382,76.998 Z M38,4.635 L4.315,29.87 L15.521,38.264 L15.521,22.877 L60.481,22.877 L60.481,38.264 L71.685,29.87 L38,4.635 L38,4.635 Z M18.755,26.111 L18.755,40.686 L38,55.104 L57.246,40.687 L57.246,26.111 L18.755,26.111 L18.755,26.111 Z M72.765,33.102 L38.969,58.418 C38.682,58.634 37.864,59.002 37.031,58.418 L3.234,33.1 L3.234,73.764 L72.765,73.764 L72.765,33.102 L72.765,33.102 Z M28.751,39.046 L47.552,39.046 L47.552,42.28 L28.751,42.28 L28.751,39.046 L28.751,39.046 Z M28.751,31.78 L47.552,31.78 L47.552,35.014 L28.751,35.014 L28.751,31.78 L28.751,31.78 Z" id="Shape"></path>
                </g>
            </g>
        </g>
    </g>
</svg>