<?xml version="1.0" encoding="UTF-8"?>
<svg width="91px" height="45px" viewBox="0 0 91 45" version="1.1" xmlns="http://www.w3.org/2000/svg" xmlns:xlink="http://www.w3.org/1999/xlink">
    <!-- Generator: Sketch 50.2 (55047) - http://www.bohemiancoding.com/sketch -->
    <title>GWille</title>
    <desc>Created with Sketch.</desc>
    <defs></defs>
    <g id="Symbols" stroke="none" stroke-width="1" fill="none" fill-rule="evenodd">
        <g id="Navigation" transform="translate(-29.000000, -23.000000)" fill="#FFBA33">
            <path d="M50.195,30.84 C50.195,31.0966679 50.130834,31.2833327 50.0025,31.4 C49.874166,31.5166672 49.7283342,31.5808333 49.565,31.5925 C49.4016659,31.6041667 49.2441674,31.5575005 49.0925,31.4525 C48.9408326,31.3474995 48.8533335,31.1783345 48.83,30.945 C48.83,30.8983331 48.8241667,30.8516669 48.8125,30.805 C48.8008333,30.7583331 48.795,30.7116669 48.795,30.665 C48.7716666,30.3383317 48.6900007,30.0583345 48.55,29.825 C48.3866658,29.6383324 48.1475016,29.4983338 47.8325,29.405 C47.5174984,29.3116662 47.1850017,29.265 46.835,29.265 C46.2749972,29.265 45.6741699,29.3349993 45.0325,29.475 C44.3908301,29.6150007 43.7783363,29.7841657 43.195,29.9825 C42.6116637,30.1808343 42.1041688,30.3733324 41.6725,30.56 C41.2408312,30.7466676 40.9550007,30.8749996 40.815,30.945 C39.7883282,31.5283362 38.7616718,32.3099951 37.735,33.29 C36.7083282,34.2700049 35.7808375,35.3549941 34.9525,36.545 C34.1241625,37.735006 33.4475026,38.9833268 32.9225,40.29 C32.3974974,41.5966732 32.1233335,42.8566606 32.1,44.07 C32.1,44.3966683 32.1524995,44.7116652 32.2575,45.015 C32.3625005,45.3183348 32.5141657,45.5866655 32.7125,45.82 C32.9108343,46.0533345 33.1499986,46.2283327 33.43,46.345 C33.7100014,46.4616672 34.0249983,46.4966669 34.375,46.45 C35.5650059,46.2633324 36.7316609,45.8841695 37.875,45.3125 C39.0183391,44.7408305 40.1383279,44.11667 41.235,43.44 C41.6550021,43.2066655 42.0633313,42.9733345 42.46,42.74 C42.8566687,42.5066655 43.2533314,42.2850011 43.65,42.075 L44.14,41.83 L44.105,41.83 C44.4083349,41.6666659 44.7583314,41.4683345 45.155,41.235 C45.5516687,41.0016655 45.9599979,40.8033341 46.38,40.64 C46.8000021,40.4766659 47.1908315,40.3833334 47.5525,40.36 C47.9141685,40.3366666 48.2116655,40.4299989 48.445,40.64 C48.8883356,41.0833356 49.2733317,41.602497 49.6,42.1975 C49.9266683,42.792503 50.2066655,43.4224967 50.44,44.0875 C50.6733345,44.7525033 50.8658326,45.4349965 51.0175,46.135 C51.1691674,46.8350035 51.2916662,47.5233299 51.385,48.2 C52.2716711,48.1066662 53.1583289,48.0425002 54.045,48.0075 C54.9316711,47.9724998 55.8299954,47.955 56.74,47.955 C57.6033377,47.955 58.4491625,47.9666665 59.2775,47.99 C60.1058375,48.0133335 60.9283293,48.0716662 61.745,48.165 C61.9316676,48.2116669 62.0716662,48.3049993 62.165,48.445 C62.2583338,48.5850007 62.2991667,48.7308326 62.2875,48.8825 C62.2758333,49.0341674 62.2116673,49.174166 62.095,49.3025 C61.9783328,49.430834 61.8150011,49.5066665 61.605,49.53 C60.7649958,49.4366662 59.9191709,49.3725002 59.0675,49.3375 C58.2158291,49.3024998 57.3466711,49.285 56.46,49.285 C54.8733254,49.285 53.2400084,49.3549993 51.56,49.495 L51.63,50.195 C51.6766669,50.661669 51.7116666,51.1516641 51.735,51.665 C51.7583335,52.1783359 51.77,52.6799975 51.77,53.17 C51.77,54.9900091 51.5891685,56.7633247 51.2275,58.49 C50.8658315,60.2166753 50.282504,61.7508266 49.4775,63.0925 C48.672496,64.4341734 47.6050067,65.5133292 46.275,66.33 C44.9449934,67.1466707 43.3233429,67.555 41.41,67.555 C40.8733306,67.555 40.3308361,67.5258336 39.7825,67.4675 C39.2341639,67.4091664 38.6566697,67.3100007 38.05,67.17 C36.7899937,66.8666652 35.5766725,66.4233363 34.41,65.84 C33.2433275,65.2566638 32.2516708,64.4283387 31.435,63.355 C31.2483324,63.0983321 31.0616676,62.7891685 30.875,62.4275 C30.6883324,62.0658315 30.5191674,61.6750021 30.3675,61.255 C30.2158326,60.8349979 30.0933338,60.4091688 30,59.9775 C29.9066662,59.5458312 29.86,59.1433352 29.86,58.77 C29.86,58.3733314 29.9299993,58.0000018 30.07,57.65 C30.5600024,56.4833275 31.2483289,55.4858375 32.135,54.6575 C33.0216711,53.8291625 34.0133279,53.117503 35.11,52.5225 C36.2066722,51.927497 37.3558273,51.4316686 38.5575,51.035 C39.7591727,50.6383314 40.9199944,50.2766683 42.04,49.95 C43.3466732,49.5999982 44.6649934,49.2966679 45.995,49.04 C47.3250067,48.783332 48.689993,48.5616676 50.09,48.375 C49.9266659,47.3483282 49.7108347,46.3975044 49.4425,45.5225 C49.1741653,44.6474956 48.8766683,43.8366704 48.55,43.09 C48.4566662,42.879999 48.3283342,42.670001 48.165,42.46 C48.0016659,42.2499989 47.8266676,42.0400011 47.64,41.83 L47.465,41.725 C47.465,41.7483334 47.3950007,41.7891664 47.255,41.8475 C47.1149993,41.9058336 46.9575009,41.9699996 46.7825,42.04 C46.6074991,42.1100003 46.4383342,42.1799996 46.275,42.25 C46.1116659,42.3200004 45.9950003,42.3666665 45.925,42.39 C45.3883307,42.6700014 44.8341695,42.9733317 44.2625,43.3 C43.6908305,43.6266683 43.1483359,43.9416651 42.635,44.245 C41.3049934,44.9916704 40.004173,45.6974967 38.7325,46.3625 C37.460827,47.0275033 36.0900074,47.5116651 34.62,47.815 C33.9199965,47.9550007 33.3250024,47.920001 32.835,47.71 C32.3449976,47.4999989 31.9425016,47.1966686 31.6275,46.8 C31.3124984,46.4033314 31.0850007,45.9541692 30.945,45.4525 C30.8049993,44.9508308 30.735,44.4783355 30.735,44.035 C30.735,42.9616613 30.9916641,41.7366735 31.505,40.36 C32.0183359,38.9833264 32.7124956,37.6125068 33.5875,36.2475 C34.4625044,34.8824932 35.471661,33.6108392 36.615,32.4325 C37.7583391,31.2541608 38.9599937,30.3383366 40.22,29.685 C40.6400021,29.4749989 41.1124974,29.2475012 41.6375,29.0025 C42.1625026,28.7574988 42.7049972,28.5416676 43.265,28.355 C43.8250028,28.1683324 44.3908305,28.010834 44.9625,27.8825 C45.5341695,27.754166 46.0883307,27.69 46.625,27.69 C47.5350045,27.69 48.3166634,27.9116644 48.97,28.355 C49.6233366,28.7983355 50.0316659,29.614994 50.195,30.805 L50.195,30.84 Z M48.13,62.83 C48.9700042,61.6166606 49.5766648,60.1700084 49.95,58.49 C50.3233352,56.8099916 50.51,55.0600091 50.51,53.24 C50.51,52.6333303 50.4866669,52.032503 50.44,51.4375 C50.3933331,50.842497 50.3350004,50.2416697 50.265,49.635 C47.931655,49.9150014 45.6683443,50.3349972 43.475,50.895 C41.2816557,51.4550028 39.1816767,52.1783289 37.175,53.065 C36.3583292,53.4150018 35.5825037,53.8174977 34.8475,54.2725 C34.1124963,54.7275023 33.4766694,55.2233306 32.94,55.76 C32.4033307,56.2966694 31.9775016,56.8683303 31.6625,57.475 C31.3474984,58.0816697 31.19,58.7116634 31.19,59.365 C31.19,60.0183366 31.3649982,60.7008298 31.715,61.4125 C32.0650018,62.1241702 32.6483293,62.8533296 33.465,63.6 C34.3516711,64.4166708 35.5008263,65.0466645 36.9125,65.49 C38.3241737,65.9333356 39.7533261,66.155 41.2,66.155 C42.8100081,66.155 44.2333272,65.8633363 45.47,65.28 C46.0066694,65.023332 46.4908312,64.6791688 46.9225,64.2475 C47.3541688,63.8158312 47.7566648,63.3433359 48.13,62.83 Z M58.7174983,45.715 C58.7174983,45.6916666 58.7116651,45.6566669 58.6999983,45.61 C58.6883316,45.5633331 58.6824983,45.5283334 58.6824983,45.505 C58.612498,44.8983303 58.5716651,44.2800031 58.5599983,43.65 C58.5483316,43.0199968 58.5424983,42.3783366 58.5424983,41.725 L58.5424983,38.54 C58.5424983,38.0266641 58.5366651,37.5075026 58.5249983,36.9825 C58.5133316,36.4574974 58.4841652,35.9266693 58.4374983,35.39 C58.3908314,35.3433331 58.3733316,35.2908336 58.3849983,35.2325 C58.3966651,35.1741664 58.4024983,35.1216669 58.4024983,35.075 L58.4024983,34.76 L58.4374983,34.585 C58.6008325,34.2583317 58.8341635,34.0891667 59.1374983,34.0775 C59.4408332,34.0658333 59.6391645,34.2349983 59.7324983,34.585 C59.8491656,35.3783373 59.9366647,36.2124956 59.9949983,37.0875 C60.053332,37.9625044 60.0708318,38.73833 60.0474983,39.415 C60.0474983,39.6016676 60.0416651,39.8349986 60.0299983,40.115 C60.0183316,40.3950014 60.0008318,40.6283324 59.9774983,40.815 L59.9774983,40.78 C59.9541649,41.1300017 59.9366651,41.4799982 59.9249983,41.83 C59.9133316,42.1800018 59.9074983,42.5416648 59.9074983,42.915 C59.9074983,43.59167 59.9249982,44.2158305 59.9599983,44.7875 C59.9949985,45.3591695 60.1058307,45.9483303 60.2924983,46.555 C60.6658335,46.0183306 60.9633306,45.452503 61.1849983,44.8575 C61.4066661,44.262497 61.6224973,43.6616697 61.8324983,43.055 C62.0658328,42.4249968 62.2933306,41.812503 62.5149983,41.2175 C62.7366661,40.622497 63.01083,40.0683359 63.3374983,39.555 C63.5241659,39.298332 63.7341638,39.17 63.9674983,39.17 C64.2008328,39.17 64.4108307,39.3216652 64.5974983,39.625 C64.8541663,40.1616693 65.0699975,40.8441625 65.2449983,41.6725 C65.4199992,42.5008375 65.6008307,43.3699954 65.7874983,44.28 C65.9508325,45.1666711 66.1374973,46.0591622 66.3474983,46.9575 C66.5574994,47.8558378 66.7966637,48.6899961 67.0649983,49.46 C67.333333,50.2300039 67.6483299,50.9008305 68.0099983,51.4725 C68.3716668,52.0441695 68.8091624,52.4466655 69.3224983,52.68 C69.9058346,52.936668 70.4599957,52.9191681 70.9849983,52.6275 C71.510001,52.3358319 72.0116626,51.892503 72.4899983,51.2975 C72.9683341,50.702497 73.4058297,50.0083373 73.8024983,49.215 C74.199167,48.4216627 74.5433302,47.6458371 74.8349983,46.8875 C75.1266665,46.1291629 75.371664,45.4408364 75.5699983,44.8225 C75.7683327,44.2041636 75.902498,43.7666679 75.9724983,43.51 C76.4158339,42.0399927 76.6841645,40.5933404 76.7774983,39.17 C76.8008318,38.9599989 76.8124983,38.7616676 76.8124983,38.575 L76.8124983,38.015 C76.8124983,36.3349916 76.5616675,34.7775072 76.0599983,33.3425 C75.5583292,31.9074928 74.8466696,30.6241723 73.9249983,29.4925 C73.0033271,28.3608277 71.877505,27.4041706 70.5474983,26.6225 C69.2174917,25.8408294 67.7125067,25.2750018 66.0324983,24.925 C65.4258286,24.8083327 64.8425011,24.7266669 64.2824983,24.68 C63.7224955,24.6333331 63.1508346,24.5866669 62.5674983,24.54 C62.2874969,24.5166665 62.013333,24.4991667 61.7449983,24.4875 C61.4766637,24.4758333 61.2024997,24.4466669 60.9224983,24.4 C60.7124973,24.3766665 60.5549989,24.2891674 60.4499983,24.1375 C60.3449978,23.9858326 60.2983316,23.8283341 60.3099983,23.665 C60.3216651,23.5016659 60.3916644,23.355834 60.5199983,23.2275 C60.6483323,23.099166 60.8291638,23.035 61.0624983,23.035 C61.3191663,23.0816669 61.5874969,23.1108333 61.8674983,23.1225 C62.1474997,23.1341667 62.4274969,23.1516666 62.7074983,23.175 C63.314168,23.2216669 63.9266619,23.2683331 64.5449983,23.315 C65.1633348,23.3616669 65.7641621,23.4433327 66.3474983,23.56 C68.610843,24.0733359 70.646656,24.9833268 72.4549983,26.29 C74.2633407,27.5966732 75.6458269,29.1599909 76.6024983,30.98 C76.8358328,31.446669 77.051664,31.9599972 77.2499983,32.52 C77.4483327,33.0800028 77.6174976,33.6749968 77.7574983,34.305 C77.897499,34.9350032 78.0083313,35.5708301 78.0899983,36.2125 C78.1716654,36.8541699 78.2124983,37.4666637 78.2124983,38.05 C78.2124983,38.2833345 78.2066651,38.4991657 78.1949983,38.6975 C78.1833316,38.8958343 78.1658318,39.0999989 78.1424983,39.31 C77.8858304,41.2933432 77.4658346,43.1658245 76.8824983,44.9275 C76.2991621,46.6891755 75.5991691,48.4099916 74.7824983,50.09 C74.5958307,50.4400018 74.3508332,50.8599976 74.0474983,51.35 C73.7441635,51.8400025 73.394167,52.3066644 72.9974983,52.75 C72.6008297,53.1933356 72.1691673,53.5724984 71.7024983,53.8875 C71.2358293,54.2025016 70.7341677,54.36 70.1974983,54.36 C69.7074959,54.36 69.1941677,54.1966683 68.6574983,53.87 C67.9574948,53.3799975 67.3741673,52.7850035 66.9074983,52.085 C66.4408293,51.3849965 66.0499999,50.632504 65.7349983,49.8275 C65.4199968,49.022496 65.1691659,48.1883377 64.9824983,47.325 C64.7958307,46.4616623 64.632499,45.6216707 64.4924983,44.805 L64.1774983,43.23 L64.0724983,42.565 C64.002498,42.0749975 63.9324987,41.6550017 63.8624983,41.305 C63.6758307,41.7016687 63.4949992,42.1274977 63.3199983,42.5825 C63.1449975,43.0375023 62.987499,43.4633314 62.8474983,43.86 C62.5908304,44.6300039 62.3049999,45.3766631 61.9899983,46.1 C61.6749968,46.8233369 61.2491677,47.5233299 60.7124983,48.2 C60.4791638,48.3633342 60.2691659,48.4100004 60.0824983,48.34 C59.8024969,48.2699997 59.5808325,48.1416676 59.4174983,47.955 C59.2541642,47.7683324 59.1258321,47.5466679 59.0324983,47.29 C58.9391645,47.033332 58.8691652,46.7708347 58.8224983,46.5025 C58.7758314,46.2341653 58.7408318,45.9716679 58.7174983,45.715 Z M83.7949967,40.43 C83.9349974,40.173332 84.1624951,40.0391667 84.4774967,40.0275 C84.7924982,40.0158333 85.0083294,40.2083313 85.1249967,40.605 L85.1249967,42.145 C85.1249967,42.4716683 85.1191634,42.7866652 85.1074967,43.09 C85.0958299,43.3933349 85.0899967,43.7083317 85.0899967,44.035 C85.0899967,44.758337 85.1133298,45.481663 85.1599967,46.205 C85.2066636,46.928337 85.2883294,47.651663 85.4049967,48.375 C85.4049967,48.4683338 85.4166632,48.5616662 85.4399967,48.655 C85.4633301,48.8416676 85.4983298,49.063332 85.5449967,49.32 C85.5916636,49.576668 85.6499963,49.8216655 85.7199967,50.055 C85.789997,50.2883345 85.8716629,50.4924991 85.9649967,50.6675 C86.0583305,50.8425009 86.174996,50.93 86.3149967,50.93 C86.6649984,50.9533335 87.0149949,50.795835 87.3649967,50.4575 C87.7149984,50.119165 88.0299953,49.7983349 88.3099967,49.495 L88.6249967,49.075 C88.8116643,48.9349993 88.9924958,48.8708333 89.1674967,48.8825 C89.3424975,48.8941667 89.4824961,48.964166 89.5874967,49.0925 C89.6924972,49.220834 89.7449967,49.3724991 89.7449967,49.5475 C89.7449967,49.7225009 89.6749974,49.8916658 89.5349967,50.055 L89.2199967,50.44 C89.1033294,50.5566673 88.9633308,50.7024991 88.7999967,50.8775 C88.6366625,51.0525009 88.4966639,51.1983328 88.3799967,51.315 C88.0299949,51.6416683 87.6741651,51.8866658 87.3124967,52.05 C86.9508282,52.2133342 86.6416646,52.295 86.3849967,52.295 C85.8949942,52.295 85.4749984,52.0966686 85.1249967,51.7 C84.7749949,51.3033314 84.5066643,50.7433369 84.3199967,50.02 L84.3199967,49.985 C84.2499963,49.7749989 84.2149967,49.5883342 84.2149967,49.425 C84.1916632,49.681668 84.1799967,49.9324988 84.1799967,50.1775 L84.1799967,50.93 C84.1099963,51.3500021 83.911665,51.5541667 83.5849967,51.5425 C83.2583284,51.5308333 83.0016643,51.3616683 82.8149967,51.035 L83.7949967,40.43 Z M84.2149967,36.545 C84.4483312,36.545 84.6291627,36.609166 84.7574967,36.7375 C84.8858306,36.865834 84.9499967,37.0058326 84.9499967,37.1575 C84.9499967,37.3091674 84.8916639,37.4608326 84.7749967,37.6125 C84.6583294,37.7641674 84.4833312,37.8516665 84.2499967,37.875 L83.9699967,37.875 C83.7366622,37.8516665 83.5733305,37.7641674 83.4799967,37.6125 C83.3866629,37.4608326 83.3458299,37.3091674 83.3574967,37.1575 C83.3691634,37.0058326 83.444996,36.865834 83.5849967,36.7375 C83.7249974,36.609166 83.8999956,36.545 84.1099967,36.545 L84.2149967,36.545 Z M88.257495,52.4 C88.1174943,52.0733317 88.1466607,51.8166676 88.344995,51.63 C88.5433293,51.4433324 88.770827,51.3849996 89.027495,51.455 C89.4241636,51.2916659 89.8208263,50.9416693 90.217495,50.405 C90.6141636,49.8683307 90.9641601,49.3900021 91.267495,48.97 L91.547495,48.62 L91.547495,48.655 C91.5241615,48.7016669 91.5299948,48.7016669 91.564995,48.655 C91.5999952,48.6083331 91.6408281,48.5441671 91.687495,48.4625 C91.7341619,48.3808329 91.7866614,48.2933338 91.844995,48.2 C91.9033286,48.1066662 91.9558281,48.0366669 92.002495,47.99 C91.8858277,47.4533306 91.7866621,46.9225026 91.704995,46.3975 C91.6233279,45.8724974 91.5474953,45.3708357 91.477495,44.8925 C91.4074946,44.4141643 91.3549952,43.9825019 91.319995,43.5975 C91.2849948,43.2124981 91.2558284,42.9033345 91.232495,42.67 L91.127495,41.62 C91.0341612,40.6166616 90.9583286,39.6658378 90.899995,38.7675 C90.8416614,37.8691622 90.7891619,36.8950052 90.742495,35.845 C90.6958281,35.1216631 90.6549952,34.3633373 90.619995,33.57 C90.5849948,32.7766627 90.567495,32.0183369 90.567495,31.295 C90.567495,30.571663 90.5849948,29.8483369 90.619995,29.125 C90.6549952,28.4016631 90.7191612,27.678337 90.812495,26.955 C90.8591619,26.3483303 90.9933272,25.9166679 91.214995,25.66 C91.4366628,25.403332 91.6991601,25.275 92.002495,25.275 C92.2358295,25.275 92.4866603,25.3566658 92.754995,25.52 C93.0233297,25.6833342 93.2799938,25.8874988 93.524995,26.1325 C93.7699962,26.3775012 93.9916607,26.6341653 94.189995,26.9025 C94.3883293,27.1708347 94.5341612,27.4099989 94.627495,27.62 L94.627495,27.585 C94.7908291,27.8883348 94.9424943,28.1916651 95.082495,28.495 C95.2224957,28.7983348 95.3858274,29.1599979 95.572495,29.58 C95.7358291,29.9766687 95.8699945,30.3208319 95.974995,30.6125 C96.0799955,30.9041681 96.1616614,31.178332 96.219995,31.435 C96.2783286,31.6916679 96.3308281,31.9541653 96.377495,32.2225 C96.4241619,32.4908347 96.4824946,32.7883317 96.552495,33.115 L96.622495,33.465 C96.6458284,33.5816672 96.6691615,33.7099993 96.692495,33.85 C96.7858288,34.316669 96.8499948,34.7949975 96.884995,35.285 C96.9199952,35.7750024 96.937495,36.253331 96.937495,36.72 C96.937495,38.7266767 96.6108316,40.7099902 95.957495,42.67 C95.3041584,44.6300098 94.4525002,46.4616581 93.402495,48.165 C93.4724953,48.4683348 93.5599945,48.8183314 93.664995,49.215 C93.7699955,49.6116686 93.8808277,50.0083313 93.997495,50.405 C94.1141622,50.8016686 94.2424943,51.1808315 94.382495,51.5425 C94.5224957,51.9041685 94.6624943,52.213332 94.802495,52.47 C94.9891626,52.4233331 95.1874939,52.4699993 95.397495,52.61 C95.607496,52.7500007 95.6891619,52.9599986 95.642495,53.24 L95.572495,53.625 C95.3858274,54.1383359 95.0708305,54.3600003 94.627495,54.29 C94.0908256,54.033332 93.6416635,53.4791709 93.279995,52.6275 C92.9183265,51.7758291 92.6091629,50.8250053 92.352495,49.775 C91.9558263,50.3350028 91.4891643,50.9299969 90.952495,51.56 C90.4158256,52.1900032 89.8208316,52.6099989 89.167495,52.82 C88.8174932,52.8900004 88.5258295,52.7733348 88.292495,52.47 L88.222495,52.295 L88.257495,52.4 Z M92.562495,42.495 C92.5858284,42.8916686 92.6091615,43.2299986 92.632495,43.51 L92.702495,44.35 C92.7258284,44.6300014 92.7608281,44.9158319 92.807495,45.2075 C92.8541619,45.4991681 92.9124946,45.8316648 92.982495,46.205 C93.7991657,44.6649923 94.4233262,43.1016746 94.854995,41.515 C95.2866638,39.9283254 95.502495,38.2716753 95.502495,36.545 C95.502495,36.1483313 95.4849952,35.7458354 95.449995,35.3375 C95.4149948,34.9291646 95.3741619,34.5266686 95.327495,34.13 C95.2108277,33.0566613 94.98333,32.0066718 94.644995,30.98 C94.30666,29.9533282 93.8691643,28.9616714 93.332495,28.005 L93.192495,27.76 L93.192495,27.795 C93.0758277,27.6083324 92.9358291,27.3983345 92.772495,27.165 C92.6091608,26.9316655 92.4691622,26.7683338 92.352495,26.675 C92.1424939,27.2116693 92.0024953,27.7716637 91.932495,28.355 C91.8624946,28.9383362 91.827495,29.5333303 91.827495,30.14 C91.827495,30.350001 91.8333283,30.5658322 91.844995,30.7875 C91.8566617,31.0091678 91.862495,31.2249989 91.862495,31.435 C91.862495,31.5750007 91.8683283,31.7149993 91.879995,31.855 C91.8916617,31.9950007 91.897495,32.1233328 91.897495,32.24 C91.9441619,33.9900088 92.031661,35.7108249 92.159995,37.4025 C92.288329,39.0941751 92.4224943,40.7916581 92.562495,42.495 Z M100.279993,52.4 C100.139993,52.0733317 100.169159,51.8166676 100.367493,51.63 C100.565828,51.4433324 100.793325,51.3849996 101.049993,51.455 C101.446662,51.2916659 101.843325,50.9416693 102.239993,50.405 C102.636662,49.8683307 102.986658,49.3900021 103.289993,48.97 L103.569993,48.62 L103.569993,48.655 C103.54666,48.7016669 103.552493,48.7016669 103.587493,48.655 C103.622493,48.6083331 103.663326,48.5441671 103.709993,48.4625 C103.75666,48.3808329 103.80916,48.2933338 103.867493,48.2 C103.925827,48.1066662 103.978326,48.0366669 104.024993,47.99 C103.908326,47.4533306 103.80916,46.9225026 103.727493,46.3975 C103.645826,45.8724974 103.569994,45.3708357 103.499993,44.8925 C103.429993,44.4141643 103.377493,43.9825019 103.342493,43.5975 C103.307493,43.2124981 103.278327,42.9033345 103.254993,42.67 L103.149993,41.62 C103.05666,40.6166616 102.980827,39.6658378 102.922493,38.7675 C102.86416,37.8691622 102.81166,36.8950052 102.764993,35.845 C102.718326,35.1216631 102.677493,34.3633373 102.642493,33.57 C102.607493,32.7766627 102.589993,32.0183369 102.589993,31.295 C102.589993,30.571663 102.607493,29.8483369 102.642493,29.125 C102.677493,28.4016631 102.74166,27.678337 102.834993,26.955 C102.88166,26.3483303 103.015826,25.9166679 103.237493,25.66 C103.459161,25.403332 103.721658,25.275 104.024993,25.275 C104.258328,25.275 104.509159,25.3566658 104.777493,25.52 C105.045828,25.6833342 105.302492,25.8874988 105.547493,26.1325 C105.792495,26.3775012 106.014159,26.6341653 106.212493,26.9025 C106.410828,27.1708347 106.55666,27.4099989 106.649993,27.62 L106.649993,27.585 C106.813327,27.8883348 106.964993,28.1916651 107.104993,28.495 C107.244994,28.7983348 107.408326,29.1599979 107.594993,29.58 C107.758327,29.9766687 107.892493,30.3208319 107.997493,30.6125 C108.102494,30.9041681 108.18416,31.178332 108.242493,31.435 C108.300827,31.6916679 108.353326,31.9541653 108.399993,32.2225 C108.44666,32.4908347 108.504993,32.7883317 108.574993,33.115 L108.644993,33.465 C108.668327,33.5816672 108.69166,33.7099993 108.714993,33.85 C108.808327,34.316669 108.872493,34.7949975 108.907493,35.285 C108.942493,35.7750024 108.959993,36.253331 108.959993,36.72 C108.959993,38.7266767 108.63333,40.7099902 107.979993,42.67 C107.326657,44.6300098 106.474999,46.4616581 105.424993,48.165 C105.494994,48.4683348 105.582493,48.8183314 105.687493,49.215 C105.792494,49.6116686 105.903326,50.0083313 106.019993,50.405 C106.136661,50.8016686 106.264993,51.1808315 106.404993,51.5425 C106.544994,51.9041685 106.684993,52.213332 106.824993,52.47 C107.011661,52.4233331 107.209992,52.4699993 107.419993,52.61 C107.629994,52.7500007 107.71166,52.9599986 107.664993,53.24 L107.594993,53.625 C107.408326,54.1383359 107.093329,54.3600003 106.649993,54.29 C106.113324,54.033332 105.664162,53.4791709 105.302493,52.6275 C104.940825,51.7758291 104.631661,50.8250053 104.374993,49.775 C103.978325,50.3350028 103.511663,50.9299969 102.974993,51.56 C102.438324,52.1900032 101.84333,52.6099989 101.189993,52.82 C100.839992,52.8900004 100.548328,52.7733348 100.314993,52.47 L100.244993,52.295 L100.279993,52.4 Z M104.584993,42.495 C104.608327,42.8916686 104.63166,43.2299986 104.654993,43.51 L104.724993,44.35 C104.748327,44.6300014 104.783326,44.9158319 104.829993,45.2075 C104.87666,45.4991681 104.934993,45.8316648 105.004993,46.205 C105.821664,44.6649923 106.445824,43.1016746 106.877493,41.515 C107.309162,39.9283254 107.524993,38.2716753 107.524993,36.545 C107.524993,36.1483313 107.507493,35.7458354 107.472493,35.3375 C107.437493,34.9291646 107.39666,34.5266686 107.349993,34.13 C107.233326,33.0566613 107.005828,32.0066718 106.667493,30.98 C106.329158,29.9533282 105.891663,28.9616714 105.354993,28.005 L105.214993,27.76 L105.214993,27.795 C105.098326,27.6083324 104.958327,27.3983345 104.794993,27.165 C104.631659,26.9316655 104.491661,26.7683338 104.374993,26.675 C104.164992,27.2116693 104.024994,27.7716637 103.954993,28.355 C103.884993,28.9383362 103.849993,29.5333303 103.849993,30.14 C103.849993,30.350001 103.855827,30.5658322 103.867493,30.7875 C103.87916,31.0091678 103.884993,31.2249989 103.884993,31.435 C103.884993,31.5750007 103.890827,31.7149993 103.902493,31.855 C103.91416,31.9950007 103.919993,32.1233328 103.919993,32.24 C103.96666,33.9900088 104.054159,35.7108249 104.182493,37.4025 C104.310827,39.0941751 104.444993,40.7916581 104.584993,42.495 Z M119.337492,47.71 C119.524159,47.8966676 119.605825,48.0949989 119.582492,48.305 C119.489158,48.5850014 119.384159,48.7483331 119.267492,48.795 C118.660822,49.4716701 118.036662,50.0724974 117.394992,50.5975 C116.753322,51.1225026 116.199161,51.3616669 115.732492,51.315 C115.055822,51.2449996 114.495827,51.0175019 114.052492,50.6325 C113.609156,50.2474981 113.247493,49.7516697 112.967492,49.145 L112.687492,48.41 C112.40749,47.5699958 112.267492,46.578339 112.267492,45.435 C112.267492,44.6183293 112.349158,43.8133373 112.512492,43.02 C112.675826,42.2266627 112.903324,41.5033366 113.194992,40.85 C113.48666,40.1966634 113.84249,39.6541688 114.262492,39.2225 C114.682494,38.7908312 115.160822,38.5283338 115.697492,38.435 C116.070827,38.3883331 116.37999,38.4466659 116.624992,38.61 C116.869993,38.7733341 117.062491,38.9891653 117.202492,39.2575 C117.342492,39.5258347 117.435825,39.8349982 117.482492,40.185 C117.529159,40.5350017 117.552492,40.8849982 117.552492,41.235 C117.552492,41.5850017 117.523325,41.9233317 117.464992,42.25 C117.406658,42.5766683 117.354159,42.7983328 117.307492,42.915 L117.307492,42.88 C116.88749,44.0700059 116.432494,45.1199954 115.942492,46.03 C115.452489,46.9400045 114.845829,47.7799962 114.122492,48.55 C114.285826,48.9466686 114.484157,49.2966651 114.717492,49.6 C114.950826,49.9033349 115.265823,50.0200004 115.662492,49.95 C116.245828,49.8566662 116.753323,49.5941688 117.184992,49.1625 C117.61666,48.7308312 117.995823,48.3166686 118.322492,47.92 C118.555826,47.5233313 118.859156,47.4299989 119.232492,47.64 L119.337492,47.71 Z M113.702492,45.26 C113.702492,45.5400014 113.702492,45.8199986 113.702492,46.1 C113.702492,46.3800014 113.725825,46.6483321 113.772492,46.905 C114.309161,46.181663 114.76999,45.4350039 115.154992,44.665 C115.539994,43.8949961 115.837491,43.17167 116.047492,42.495 C116.117492,42.238332 116.175825,42.0050011 116.222492,41.795 C116.269159,41.5849989 116.292492,41.375001 116.292492,41.165 C116.292492,40.908332 116.245825,40.6691678 116.152492,40.4475 C116.059158,40.2258322 115.919159,40.0333342 115.732492,39.87 C115.335823,40.0566676 115.00916,40.3483313 114.752492,40.745 C114.495824,41.1416686 114.285826,41.5849975 114.122492,42.075 C113.959158,42.5650024 113.848325,43.0899972 113.789992,43.65 C113.731658,44.2100028 113.702492,44.7466641 113.702492,45.26 Z" id="GWille"></path>
        </g>
    </g>
</svg>