<?xml version="1.0" encoding="UTF-8"?>
<svg width="40px" height="43px" viewBox="0 0 40 43" version="1.1" xmlns="http://www.w3.org/2000/svg" xmlns:xlink="http://www.w3.org/1999/xlink">
    <!-- Generator: Sketch 51.2 (57519) - http://www.bohemiancoding.com/sketch -->
    <title>Oval 1</title>
    <desc>Created with Sketch.</desc>
    <defs></defs>
    <g id="Page-1" stroke="none" stroke-width="1" fill="none" fill-rule="evenodd">
        <g id="Browser-Not-Supported" transform="translate(-535.000000, -277.000000)" fill="#FA6758">
            <g id="Browser-Icons---Color" transform="translate(224.000000, 276.000000)">
                <g id="opera" transform="translate(311.300731, 1.859521)">
                    <path d="M19.7335081,41.4708952 C8.83499252,41.4708952 0,32.1873191 0,20.7354476 C0,9.2835761 8.83499252,0 19.7335081,0 C30.6320237,0 39.4670162,9.2835761 39.4670162,20.7354476 C39.4670162,32.1873191 30.6320237,41.4708952 19.7335081,41.4708952 Z M19.7335081,37.9564125 C25.5567926,37.9564125 26.7811896,30.2463239 26.7811896,20.7354476 C26.7811896,11.2245713 25.5361451,3.51448264 19.7335081,3.51448264 C13.9308712,3.51448264 12.6858266,11.2245713 12.6858266,20.7354476 C12.6858266,30.2463239 13.9102237,37.9564125 19.7335081,37.9564125 Z" id="Oval-1"></path>
                </g>
            </g>
        </g>
    </g>
</svg>