<?xml version="1.0" encoding="UTF-8"?>
<svg width="43px" height="43px" viewBox="0 0 43 43" version="1.1" xmlns="http://www.w3.org/2000/svg" xmlns:xlink="http://www.w3.org/1999/xlink">
    <!-- Generator: Sketch 51.2 (57519) - http://www.bohemiancoding.com/sketch -->
    <title>img</title>
    <desc>Created with Sketch.</desc>
    <defs></defs>
    <g id="Page-1" stroke="none" stroke-width="1" fill="none" fill-rule="evenodd">
        <g id="Browser-Not-Supported" transform="translate(-459.000000, -277.000000)">
            <g id="Browser-Icons---Color" transform="translate(224.000000, 276.000000)">
                <g id="safari" transform="translate(235.185771, 1.859521)">
                    <g id="img">
                        <ellipse id="Oval-1" fill="#56AFEF" cx="21.0931699" cy="20.7354476" rx="21.0931699" ry="20.7354476"></ellipse>
                        <path d="M13.5282658,17.1429275 L14.9814457,19.2708219 C14.8630302,19.7394699 14.8001311,20.2301328 14.8001311,20.7354476 C14.8001311,24.0351394 17.4821824,26.7100681 20.7906603,26.7100681 C24.0991383,26.7100681 26.7811896,24.0351394 26.7811896,20.7354476 C26.7811896,17.4357558 24.0991383,14.7608271 20.7906603,14.7608271 C20.2968894,14.7608271 19.8170714,14.820408 19.3580396,14.9327544 L17.2359175,13.4690671 C17.913886,13.1385426 18.6449513,12.8996183 19.4129085,12.7684561 L20.7906603,5.62317222 L22.1684122,12.7684561 C25.5388438,13.3441043 28.1986716,15.9954457 28.7779793,19.356202 L35.93101,20.7354476 L28.7779793,22.1146932 C28.1986716,25.4754495 25.5388438,28.1267909 22.1684122,28.702439 L20.7906603,35.8477229 L19.4129085,28.702439 C16.0424768,28.1267909 13.382649,25.4754495 12.8033414,22.1146932 L5.6503107,20.7354476 L12.8033414,19.356202 C12.9381195,18.5743096 13.1855114,17.8308163 13.5282658,17.1429275 Z" id="Oval-2" fill="#FFFFFF"></path>
                        <polygon id="Triangle-5" fill="#F54747" transform="translate(14.093642, 14.040084) rotate(-45.000000) translate(-14.093642, -14.040084) " points="14.0936423 4.55098045 17.265099 23.5291867 10.9221857 23.5291867"></polygon>
                        <polygon id="Triangle-6" fill="#F8D8D8" transform="translate(27.484237, 27.395118) scale(-1, -1) rotate(-45.000000) translate(-27.484237, -27.395118) " points="27.4842371 17.9060145 30.6556938 36.8842207 24.3127804 36.8842207"></polygon>
                        <ellipse id="Oval-4" fill="#FFFFFF" cx="20.7906603" cy="20.7354476" rx="3.17145666" ry="3.16303438"></ellipse>
                    </g>
                </g>
            </g>
        </g>
    </g>
</svg>