<svg id="Layer_1" data-name="Layer 1" xmlns="http://www.w3.org/2000/svg" viewBox="0 0 100 100"><defs><style>.cls-1{fill:#2a2a2a;}</style></defs><title>spinner</title><path class="cls-1" d="M62.23,16.36a10.71,10.71,0,0,1-21.42.07,10.71,10.71,0,1,1,21.42-.07Z"/><path class="cls-1" d="M36.34,27.12A9.82,9.82,0,1,1,16.7,27a9.82,9.82,0,0,1,19.64.09Z"/><path class="cls-1" d="M24.73,52.12a8.93,8.93,0,1,1-8.79-9A9,9,0,0,1,24.73,52.12Z"/><path class="cls-1" d="M34.56,77.11a8.09,8.09,0,0,1-8.15,8,8,8,0,0,1-7.92-8.09,8,8,0,0,1,16.07.06Z"/><path class="cls-1" d="M51.51,95a7.14,7.14,0,1,1,7.16-7.13A7.11,7.11,0,0,1,51.51,95Z"/><path class="cls-1" d="M76.47,83.34a6.24,6.24,0,1,1,6.31-6.2A6.21,6.21,0,0,1,76.47,83.34Z"/><path class="cls-1" d="M87.18,57.45a5.35,5.35,0,1,1,5.41-5.2A5.31,5.31,0,0,1,87.18,57.45Z"/><path class="cls-1" d="M72.07,27.08a4.46,4.46,0,1,1,8.92,0,4.46,4.46,0,1,1-8.92,0Z"/></svg>